<svg xmlns="http://www.w3.org/2000/svg" xmlns:xlink="http://www.w3.org/1999/xlink" width="1024" zoomAndPan="magnify" viewBox="0 0 768 767.999994" height="1024" preserveAspectRatio="xMidYMid meet" version="1.0"><defs><g/></defs><g fill="#ffbd59" fill-opacity="1"><g transform="translate(111.87505, 627.775307)"><g><path d="M 164.921875 5.484375 C 130.953125 5.484375 100.453125 -2.914062 73.421875 -19.71875 C 46.023438 -36.519531 25.753906 -58.253906 12.609375 -84.921875 L 82.1875 -128.21875 C 89.488281 -111.414062 100.445312 -98.082031 115.0625 -88.21875 C 129.675781 -78.351562 146.476562 -73.421875 165.46875 -73.421875 C 182.632812 -73.421875 196.332031 -77.253906 206.5625 -84.921875 C 216.425781 -92.234375 221.359375 -102.460938 221.359375 -115.609375 C 221.359375 -129.492188 214.785156 -141 201.640625 -150.125 C 188.484375 -159.257812 172.59375 -167.113281 153.96875 -173.6875 C 135.332031 -179.894531 116.703125 -187.203125 98.078125 -195.609375 C 79.085938 -203.640625 63.015625 -216.242188 49.859375 -233.421875 C 36.710938 -250.585938 30.140625 -271.953125 30.140625 -297.515625 C 30.140625 -335.140625 42.738281 -364.363281 67.9375 -385.1875 C 93.144531 -406.007812 123.28125 -416.421875 158.34375 -416.421875 C 182.820312 -416.421875 206.019531 -411.304688 227.9375 -401.078125 C 249.488281 -390.484375 267.753906 -376.421875 282.734375 -358.890625 L 226.296875 -306.28125 C 205.472656 -330.03125 182.820312 -341.90625 158.34375 -341.90625 C 145.195312 -341.90625 134.421875 -338.617188 126.015625 -332.046875 C 117.617188 -325.460938 113.421875 -315.78125 113.421875 -303 C 113.421875 -293.132812 116.890625 -284.550781 123.828125 -277.25 C 130.765625 -269.945312 139.894531 -263.921875 151.21875 -259.171875 C 162.550781 -254.421875 174.972656 -249.851562 188.484375 -245.46875 C 202.003906 -240.71875 215.519531 -235.054688 229.03125 -228.484375 C 242.539062 -221.910156 254.960938 -214.238281 266.296875 -205.46875 C 277.617188 -196.332031 286.75 -184.097656 293.6875 -168.765625 C 300.625 -153.421875 304.09375 -135.519531 304.09375 -115.0625 C 304.09375 -78.53125 290.757812 -49.304688 264.09375 -27.390625 C 237.0625 -5.472656 204.003906 5.484375 164.921875 5.484375 Z M 164.921875 5.484375 "/></g></g></g><g fill="#ffbd59" fill-opacity="1"><g transform="translate(431.860642, 627.775307)"><g><path d="M 127.125 -76.15625 L 265.1875 -76.15625 L 265.1875 0 L 41.640625 0 L 41.640625 -410.9375 L 127.125 -410.9375 Z M 127.125 -76.15625 "/></g></g></g><path stroke-linecap="butt" transform="matrix(2.543293, 0, 0, 2.543293, 0.000003, 113.066426)" fill="none" stroke-linejoin="miter" d="M 100.461827 196.156208 C 87.10255 196.156208 75.110225 192.860162 64.484854 186.26807 C 53.721251 179.640652 45.743775 171.085676 40.553961 160.600072 L 67.903772 143.611458 C 70.778981 150.20355 75.09333 155.445584 80.843748 159.33756 C 86.594166 163.195747 93.203153 165.123304 100.672246 165.123304 C 107.440967 165.123304 112.822768 163.616584 116.820722 160.600072 C 120.712698 157.724863 122.658686 153.710015 122.658686 148.555527 C 122.658686 143.086179 120.063011 138.561411 114.874734 134.985831 C 109.71871 131.373389 103.478339 128.287761 96.149014 125.728948 C 88.821224 123.27304 81.491899 120.397831 74.164109 117.101785 C 66.695017 113.947042 60.382459 108.984542 55.227971 102.217357 C 50.038157 95.483961 47.444018 87.087184 47.444018 77.022417 C 47.444018 62.225535 52.404983 50.741594 62.328447 42.570594 C 72.251911 34.365804 84.104469 30.263409 97.884583 30.263409 C 107.493188 30.263409 116.610303 32.280049 125.23593 36.311792 C 133.72179 40.484839 140.909812 46.007943 146.801533 52.881106 L 124.604674 73.551278 C 116.399885 64.223743 107.493188 59.560744 97.884583 59.560744 C 92.69477 59.560744 88.452608 60.857046 85.156562 63.452721 C 81.860515 66.046859 80.212492 69.851289 80.212492 74.86601 C 80.212492 78.757986 81.579445 82.124684 84.314887 84.964567 C 87.050329 87.839776 90.625909 90.225032 95.0447 92.1188 C 99.497281 93.977241 104.389129 95.765032 109.71871 97.483706 C 115.049827 99.342148 120.360976 101.56767 125.656767 104.163345 C 130.986348 106.757484 135.878197 109.773996 140.330777 113.209809 C 144.784894 116.786925 148.360474 121.591227 151.06059 127.62118 C 153.796032 133.652668 155.164521 140.700923 155.164521 148.765945 C 155.164521 163.1082 149.920951 174.592141 139.436882 183.217768 C 128.813046 191.843395 115.820849 196.156208 100.461827 196.156208 Z M 211.392365 164.071211 L 265.672686 164.071211 L 265.672686 193.999802 L 177.782217 193.999802 L 177.782217 32.419816 L 211.392365 32.419816 Z M 211.392365 164.071211 " stroke="#ff914d" stroke-width="8.079225" stroke-opacity="1" stroke-miterlimit="4"/></svg>